<svg xmlns="http://www.w3.org/2000/svg" viewBox="0 0 32 32" width="32" height="32">
  <rect width="32" height="32" rx="8" fill="#d81e47"/>
  <path d="M16 6.5c1.1 2.6 2.4 3.9 5 5-2.6 1.1-3.9 2.4-5 5-1.1-2.6-2.4-3.9-5-5 2.6-1.1 3.9-2.4 5-5Z" fill="#fff"/>
  <path d="M23 17.5c.6 1.4 1.3 2.1 2.7 2.7-1.4.6-2.1 1.3-2.7 2.7-.6-1.4-1.3-2.1-2.7-2.7 1.4-.6 2.1-1.3 2.7-2.7Z" fill="#ffc6d1"/>
  <path d="M9.5 18c.5 1.2 1.1 1.8 2.3 2.3-1.2.5-1.8 1.1-2.3 2.3-.5-1.2-1.1-1.8-2.3-2.3 1.2-.5 1.8-1.1 2.3-2.3Z" fill="#ff9db0"/>
</svg>
